<?xml version="1.0" encoding="utf-8"?>
<!-- Generator: Adobe Illustrator 22.0.1, SVG Export Plug-In . SVG Version: 6.00 Build 0)  -->
<svg version="1.1" id="Layer_1" xmlns:x="&ns_extend;" xmlns:i="&ns_ai;" xmlns:graph="&ns_graphs;"
	 xmlns="http://www.w3.org/2000/svg" xmlns:xlink="http://www.w3.org/1999/xlink" x="0px" y="0px" viewBox="0 0 504 140"
	 style="enable-background:new 0 0 504 140;" xml:space="preserve">
<style type="text/css">
	.st0{fill:#A92A1A;}
	.st1{fill:none;}
	.st2{stroke:#000000;stroke-miterlimit:10;}
	.st3{font-family:'Arial-BoldMT';}
	.st4{font-size:46.9482px;}
	.st5{font-size:22.5351px;}
</style>
<metadata>
	<sfw  xmlns="&ns_sfw;">
		<slices></slices>
		<sliceSourceBounds  bottomLeftOrigin="true" height="165" width="523" x="68" y="-31"></sliceSourceBounds>
	</sfw>
</metadata>
<path class="st0" d="M150.6,61.6c0,0,0.4-0.5,0.4-0.6c0-0.1,0.3-0.4,0.3-0.4l0.1-0.1c0,0,0.1,0,0.1,0c0,0,0.1,0.1,0.1,0.1l0.1,0.1
	c0,0,0,0.1,0,0.1c0,0,0,0.4,0,0.4v0.8l0.1,10.5l0,3.2v2.1l0,2.5c0,0,0,0.8,0.1,1.1c0.1,0.3,0.2,0.8,0.3,1.2l1.1,3l1.1,3.1l1.1,3.1
	l0.8,2.3l1.1,3l1,2.8l1.2,3.3l1.4,3.9l1.4,3.8l1.4,3.8l1.2,3.4l1.2,3.3l1.4,3.9l1.2,3.4l1.9,5.3l0.3,0.9l0.1,0.2
	c0,0,0.1,0.4-0.4,0.3c-0.1-0.1-0.2-0.2-0.4-0.4c-0.2-0.2-0.8-0.8-0.8-0.8l-2.2-2.5l-3.4-3.8l-3.5-3.8l-3.4-3.8l-3.8-4.2l-3.6-4
	l-4.5-4.9l-4-4.4l-4.6-5.1l-5.7-6.3l-0.1-0.2c0,0-0.3-0.3,0-0.7c0.2-0.4,0.2-0.3,0.2-0.3l0.4-0.6l1.8-2.6l2.4-3.4l3.7-5.3l2.3-3.3
	l2.6-3.8l3-4.3l2.8-4L150.6,61.6z"/>
<path class="st0" d="M150.2,55.9c0,0,0.3,0.5,0.4,0.6c0.1,0.1,0.3,0.4,0.3,0.4l0,0.1c0,0,0,0.1,0,0.1c0,0-0.1,0-0.1,0l-0.1,0
	c0,0-0.1,0-0.1,0c0,0-0.4-0.2-0.4-0.2l-0.8-0.4l-10.3-5.2l-3.2-1.6l-2-1l-2.5-1.3c0,0-0.8-0.4-1.1-0.5c-0.3-0.1-0.8-0.3-1.3-0.4
	l-3.5-0.7l-3.5-0.7l-3.5-0.7l-2.7-0.5l-3.4-0.7l-3.2-0.7l-3.8-0.8l-4.5-0.9l-4.4-0.9l-4.3-0.9L88,38.5l-3.9-0.8l-4.5-0.9l-4-0.8
	l-6.1-1.2l-1.1-0.2l-0.2,0c0,0-0.4-0.1-0.1-0.5c0.1,0,0.3-0.1,0.6-0.1c0.3,0,1.2-0.2,1.2-0.2l3.5-0.5l5.4-0.7l5.5-0.7l5.4-0.7l6-0.8
	l5.7-0.7l7.1-0.9l6.3-0.8l7.3-1l9-1.2l0.3,0c0,0,0.5,0,0.7,0.3c0.3,0.4,0.2,0.3,0.2,0.3l0.3,0.6l1.6,2.6l2.1,3.6l3.3,5.5l2.1,3.4
	l2.4,3.9l2.7,4.5l2.5,4.2L150.2,55.9z"/>
<path class="st0" d="M155.3,58.9c0,0-0.7,0-0.8,0c-0.1,0-0.5,0-0.5,0l-0.1,0c0,0-0.1,0-0.1-0.1c0,0,0-0.1,0-0.1l0-0.1
	c0,0,0.1-0.1,0.1-0.1c0,0,0.4-0.2,0.4-0.2l0.8-0.4l10.2-5.4l3.1-1.7l2-1l2.5-1.3c0,0,0.8-0.4,1-0.6c0.3-0.2,0.7-0.5,1-0.8l2.4-2.4
	l2.4-2.4l2.4-2.4l1.8-1.8l2.4-2.3l2.2-2.2l2.6-2.6l3.1-3l3-2.9l3-2.9l2.7-2.6l2.6-2.6l3.1-3.1l2.7-2.7l4.2-4.1l0.7-0.7l0.1-0.1
	c0,0,0.4-0.3,0.5,0.2c0,0.1-0.1,0.3-0.2,0.5c-0.1,0.2-0.4,1-0.4,1l-1.3,3l-1.9,4.5l-2,4.6l-1.9,4.5l-2.1,5l-2.1,4.8l-2.6,5.9
	l-2.3,5.3l-2.6,6.1l-3.2,7.5l-0.1,0.2c0,0-0.2,0.4-0.7,0.4c-0.5,0-0.4,0-0.4,0l-0.7,0l-3.4-0.1l-4.5-0.1l-7-0.1l-4.4-0.1l-5-0.1
	l-5.7-0.1l-5.4-0.1L155.3,58.9z"/>
<rect x="203.1" y="68.8" class="st1" width="320" height="73.7"/>
<text transform="matrix(1.1298 0 0 1 203.0967 102.4434)" class="st2 st3 st4">VORTEX</text>
<rect x="353" y="103.6" class="st1" width="238" height="67.4"/>
<text transform="matrix(1.1298 0 0 1 352.9893 119.7217)" class="st3 st5">NTNU</text>
</svg>
